<?xml version="1.0" standalone="no"?>
<!DOCTYPE svg PUBLIC "-//W3C//DTD SVG 20010904//EN"
 "http://www.w3.org/TR/2001/REC-SVG-20010904/DTD/svg10.dtd">
<svg version="1.0" xmlns="http://www.w3.org/2000/svg"
 width="529.000000pt" height="529.000000pt" viewBox="0 0 529.000000 529.000000"
 preserveAspectRatio="xMidYMid meet">
<metadata>
Created by potrace 1.11, written by Peter Selinger 2001-2013
</metadata>
<g transform="translate(0.000000,529.000000) scale(0.100000,-0.100000)"
fill="#000000" stroke="none">
<path d="M1030 4534 c-233 -29 -453 -67 -572 -101 l-58 -16 0 -1383 c0 -761 2
-1384 4 -1384 2 0 51 11 108 24 481 113 947 126 1263 35 219 -64 456 -169 649
-288 63 -39 117 -71 120 -71 3 0 6 621 6 1380 l0 1379 -72 49 c-233 157 -555
294 -824 352 -83 18 -139 22 -344 25 -135 2 -261 1 -280 -1z m720 -1006 c0
-456 -4 -840 -10 -888 -41 -360 -224 -592 -525 -667 -159 -39 -535 -10 -535
41 0 73 21 191 37 208 19 21 22 21 193 -1 215 -28 381 53 461 223 59 126 59
122 59 1044 l0 842 160 0 160 0 0 -802z"/>
<path d="M3770 4519 c-275 -35 -640 -176 -937 -362 l-83 -52 0 -1382 c0 -761
2 -1383 3 -1383 2 0 46 25 96 56 327 197 665 322 953 353 269 30 672 -8 966
-89 39 -11 76 -20 82 -20 7 0 10 456 10 1384 l0 1384 -77 21 c-129 34 -312 69
-454 85 -143 17 -446 20 -559 5z m418 -234 c139 -33 299 -113 383 -191 l26
-25 -43 -83 c-24 -46 -51 -89 -59 -96 -27 -22 -68 -15 -128 23 -180 115 -319
152 -489 128 -208 -29 -338 -165 -338 -354 0 -92 29 -156 96 -216 69 -61 153
-100 371 -174 227 -77 342 -129 432 -196 153 -114 222 -277 208 -487 -24 -336
-241 -587 -567 -654 -134 -28 -322 -27 -444 1 -168 40 -312 114 -431 222 l-59
54 50 84 c53 89 85 116 125 106 13 -4 62 -34 109 -68 161 -116 278 -159 430
-161 173 -2 300 42 384 132 109 117 143 308 78 437 -52 100 -163 165 -448 258
-225 74 -340 126 -423 189 -96 74 -164 183 -190 304 -14 67 -14 215 0 284 15
72 79 202 129 262 97 117 267 210 430 236 74 12 291 3 368 -15z"/>
<path d="M120 4165 c-8 -2 -32 -6 -52 -10 l-38 -6 0 -1514 c0 -1240 2 -1515
13 -1515 7 0 76 14 153 31 344 75 670 112 999 113 255 1 340 -6 516 -45 307
-66 672 -241 897 -428 l59 -49 69 56 c254 204 648 382 968 437 370 63 893 32
1405 -85 73 -16 139 -30 147 -30 12 0 14 226 14 1508 l0 1509 -82 11 c-46 7
-93 12 -105 12 l-23 0 0 -1406 c0 -1334 -1 -1405 -17 -1400 -96 30 -371 82
-593 113 -159 22 -606 25 -720 5 -103 -18 -319 -75 -410 -108 -177 -63 -411
-183 -570 -292 l-84 -57 -126 83 c-259 172 -551 293 -875 362 -130 28 -452 38
-657 21 -239 -20 -635 -83 -795 -127 l-23 -6 0 1411 0 1411 -27 -1 c-16 -1
-35 -3 -43 -4z"/>
</g>
</svg>
